<svg width="32" height="32" xmlns="http://www.w3.org/2000/svg" xmlns:xlink="http://www.w3.org/1999/xlink"><defs><path d="M16 26.4c5.523 0 10-4.477 10-10s-4.477-10-10-10-10 4.477-10 10 4.477 10 10 10z" id="a"/><mask id="b" maskContentUnits="userSpaceOnUse" maskUnits="objectBoundingBox" x="0" y="0" width="20" height="20" fill="#fff"><use xlink:href="#a"/></mask></defs><g fill="none" fill-rule="evenodd"><use stroke="#C1CFE5" mask="url(#b)" stroke-width="4" stroke-dasharray="2.4" xlink:href="#a"/><path d="M16 6.4c.545 0 1.08.044 1.601.127V8.56A8 8 0 1 0 23.99 16h2.001c.005.133.008.266.008.4 0 5.523-4.477 10-10 10s-10-4.477-10-10 4.477-10 10-10z" fill="#C1CFE5" fill-rule="nonzero"/><path d="m20 14.8-2.4 6.008h-2.4l1.44-3.607L12 17.2l2.33-6.017h2.4l-1.401 3.618L20 14.8z" fill="#0CC280"/></g></svg>